<svg width="23" height="23" viewBox="0 0 23 23" fill="none" xmlns="http://www.w3.org/2000/svg">
<path d="M15.6963 10.9729V22.2105C14.3966 22.7202 12.9809 23 11.5 23C10.0191 23 8.6039 22.7202 7.30368 22.2105V10.9729L10.0355 9.39526V20.6277L11.5 21.4735L12.9645 20.6277V9.39526L15.6963 10.9729Z" fill="#E08A52"/>
<path d="M21.3219 7.72472V17.4842C20.6503 18.5849 19.7983 19.5636 18.8079 20.3794C18.7051 20.4639 18.6009 20.5469 18.4953 20.6277V9.35677L11.5 5.31816L4.50472 9.35677V20.6282C3.38005 19.7654 2.41972 18.699 1.67805 17.4847V7.72472L11.5 2.05499L21.3219 7.72472Z" fill="#E08A52"/>
</svg>
