<svg width="24" height="24" viewBox="0 0 24 24" fill="none" xmlns="http://www.w3.org/2000/svg">
<path d="M24 12C24 14.1585 23.4304 16.1838 22.4322 17.9339C22.3587 18.0632 22.2764 18.2013 22.1858 18.3467C20.9138 20.3843 19.0472 22.0129 16.8284 22.989C16.463 23.1496 16.0878 23.2932 15.7043 23.4171C15.4781 23.4905 15.2488 23.5576 15.0172 23.6174C14.8119 23.6708 14.6043 23.7188 14.3951 23.7609C13.6212 23.9177 12.8204 24 12 24C9.62058 24 7.40377 23.3079 5.53861 22.1133C4.31756 21.3321 3.24783 20.3354 2.38186 19.1775C0.886031 17.1757 0 14.691 0 12C0 5.62434 4.97241 0.409969 11.2506 0.0230156C11.4064 0.0132187 11.5626 0.00684375 11.7198 0.00342187H11.7218C11.8144 0.000984375 11.907 0 12 0C18.6274 0 24 5.37258 24 12Z" fill="#565656"/>
<path d="M22.4322 17.9339C22.3587 18.0632 22.2764 18.2013 22.1858 18.3467C20.9138 20.3843 19.0472 22.0129 16.8284 22.989C16.463 23.1496 16.0878 23.2932 15.7043 23.4171C15.4781 23.4905 15.2488 23.5576 15.0172 23.6174L16.5252 2.76877L18.4002 4.40911L20.4157 4.45613L22.4322 17.9339Z" fill="#55844F"/>
<path d="M15.6798 3.04312C15.1685 1.71089 14.3574 0.522656 13.0271 0.734719C12.7219 0.330141 12.3017 0.03825 11.7218 0.00346875H11.7198C11.6816 0.000984375 11.643 0 11.6033 0C11.4847 0 11.3672 0.00782812 11.2506 0.0230156C9.18268 0.293859 7.48946 2.9138 6.85374 5.90841L3.96296 6.84684L2.38187 19.1775C3.24784 20.3353 4.31752 21.3321 5.53862 22.1133L14.3951 23.7609C14.8408 23.6708 15.2777 23.5557 15.7043 23.4171L16.5252 2.76877L15.6798 3.04312ZM7.77015 5.61112C7.77015 5.61112 8.18157 4.31559 8.74388 3.14353C9.30666 1.97194 11.1346 0.284109 12.1661 0.916922C12.1969 0.936047 12.2268 0.956578 12.2552 0.978656C11.0709 1.52527 10.1408 2.80312 9.66666 4.99547L7.77015 5.61112ZM12.9722 3.92227L10.6462 4.67705C10.6462 4.67705 11.09 2.26331 12.7337 1.67067C13.0972 2.60423 12.9722 3.92227 12.9722 3.92227ZM13.8299 3.64359C13.8299 3.64359 13.8299 2.55183 13.4645 1.56342C14.3074 1.65159 14.7399 2.55427 14.9529 3.27919L13.8299 3.64359Z" fill="#AFC690"/>
<path d="M5.82028 16.9303C6.24164 17.2348 6.66319 17.5441 7.15125 17.7438C7.3612 17.8297 7.57542 17.8965 7.80033 17.9328C8.20416 17.9979 8.57039 17.944 8.82731 17.5909C9.09661 17.2207 9.04884 16.8259 8.86974 16.4369C8.74659 16.1696 8.54034 15.964 8.322 15.773C8.03995 15.5263 7.75491 15.283 7.4685 15.0413C6.53892 14.2572 6.25111 13.24 6.41484 12.0741C6.70031 10.0415 8.2118 8.58909 10.2561 8.34009C11.1349 8.23303 11.9971 8.24161 12.8463 8.52839C13.0369 8.59275 13.0559 8.67037 12.995 8.84573C12.7291 9.61144 12.4715 10.3802 12.2223 11.1515C12.172 11.3072 12.1306 11.333 11.9713 11.2677C11.321 11.0011 10.6485 10.8421 9.939 10.9611C9.44569 11.0437 9.04945 11.26 8.91066 11.7845C8.81297 12.1537 8.94239 12.4605 9.20494 12.7186C9.56817 13.0758 9.99146 13.3587 10.3927 13.6687C10.8774 14.0435 11.3261 14.4536 11.6397 14.9882C12.1983 15.9405 12.2044 16.957 11.9144 17.9785C11.424 19.7062 9.94008 20.6386 8.15522 20.4133C7.11783 20.2823 6.20208 19.905 5.40782 19.224C5.22923 19.071 5.16206 18.9331 5.25014 18.6864C5.43609 18.1658 5.57803 17.6295 5.73754 17.0996C5.75512 17.0412 5.75761 16.9763 5.82028 16.9303Z" fill="#FDFEFD"/>
</svg>
