<svg width="23" height="23" viewBox="0 0 23 23" fill="none" xmlns="http://www.w3.org/2000/svg">
<path d="M19.0345 7.50633V15.8898C19.0345 16.9696 18.1593 17.8448 17.0799 17.8448H8.72414L4.75862 22.2069V17.8448H1.9546C0.87519 17.8448 0 16.9696 0 15.8902V7.50673C0 6.42692 0.87519 5.55173 1.9546 5.55173H17.0795C18.1593 5.55173 19.0345 6.42692 19.0345 7.50633Z" fill="#83C9FE"/>
<path d="M21.0454 0H5.92012C4.8407 0 3.96552 0.87519 3.96552 1.955V5.55172H17.0799C18.1593 5.55172 19.0345 6.42691 19.0345 7.50672V12.2931H21.0454C22.1248 12.2931 23 11.4179 23 10.3381V1.955C23 0.87519 22.1248 0 21.0454 0Z" fill="#5E9FDF"/>
<path d="M9.91379 9.91972H4.36207C4.14277 9.91972 3.96552 9.74207 3.96552 9.52317C3.96552 9.30427 4.14277 9.12662 4.36207 9.12662H9.91379C10.1331 9.12662 10.3103 9.30427 10.3103 9.52317C10.3103 9.74207 10.1331 9.91972 9.91379 9.91972Z" fill="white"/>
<path d="M15.069 12.2991H4.36207C4.14277 12.2991 3.96552 12.1214 3.96552 11.9025C3.96552 11.6836 4.14277 11.506 4.36207 11.506H15.069C15.2883 11.506 15.4655 11.6836 15.4655 11.9025C15.4655 12.1214 15.2883 12.2991 15.069 12.2991Z" fill="white"/>
<path d="M15.069 14.6784H4.36207C4.14277 14.6784 3.96552 14.5007 3.96552 14.2818C3.96552 14.0629 4.14277 13.8853 4.36207 13.8853H15.069C15.2883 13.8853 15.4655 14.0629 15.4655 14.2818C15.4655 14.5007 15.2883 14.6784 15.069 14.6784Z" fill="white"/>
</svg>
