<svg width="23" height="23" viewBox="0 0 23 23" fill="none" xmlns="http://www.w3.org/2000/svg">
<g clip-path="url(#clip0)">
<path d="M11.5 23C17.8513 23 23 17.8513 23 11.5C23 5.14873 17.8513 0 11.5 0C5.14873 0 0 5.14873 0 11.5C0 17.8513 5.14873 23 11.5 23Z" fill="#79C6A3"/>
<path d="M8.56152 16.6877L14.4748 22.601C19.3722 21.295 23 16.8328 23 11.5C23 11.3912 23 11.2824 23 11.1735L18.3565 6.89276L8.56152 16.6877Z" fill="#49B691"/>
<path d="M11.7902 14.0757C12.2981 14.5836 12.2981 15.4543 11.7902 15.9622L10.7382 17.0142C10.2303 17.5221 9.35965 17.5221 8.85176 17.0142L4.2445 12.3707C3.73661 11.8628 3.73661 10.9921 4.2445 10.4842L5.29655 9.43218C5.80444 8.9243 6.6751 8.9243 7.18299 9.43218L11.7902 14.0757Z" fill="white"/>
<path d="M15.8171 6.05834C16.325 5.55046 17.1956 5.55046 17.7035 6.05834L18.7555 7.11039C19.2634 7.61828 19.2634 8.48894 18.7555 8.99683L10.7745 16.9416C10.2666 17.4495 9.39593 17.4495 8.88804 16.9416L7.83599 15.8896C7.32811 15.3817 7.32811 14.511 7.83599 14.0031L15.8171 6.05834Z" fill="white"/>
</g>
<defs>
<clipPath id="clip0">
<rect width="23" height="23" fill="white"/>
</clipPath>
</defs>
</svg>
