<svg width="24" height="24" viewBox="0 0 24 24" fill="none" xmlns="http://www.w3.org/2000/svg">
<path d="M24 12C24 13.5634 23.7012 15.0568 23.157 16.4268C22.8661 17.1595 22.5051 17.857 22.0819 18.5104C21.5549 19.3254 20.9314 20.0723 20.2281 20.7345C19.8161 21.123 19.3773 21.482 18.9139 21.8092C16.9597 23.1894 14.5748 24 12 24C9.42516 24 7.04034 23.1894 5.08603 21.8092C4.50609 21.3997 3.96441 20.9407 3.46725 20.4372C1.32342 18.2699 0 15.289 0 12C0 8.71102 1.32342 5.73014 3.46725 3.56278C3.9938 3.02991 4.57027 2.54644 5.18887 2.11936C7.12359 0.782672 9.4702 0 12 0C14.5298 0 16.8764 0.782672 18.8111 2.11936C19.2838 2.44509 19.7315 2.80458 20.1512 3.19397C20.8864 3.8738 21.5358 4.64522 22.082 5.48962C22.5052 6.14301 22.8661 6.84047 23.1571 7.57322C23.7012 8.94319 24 10.4366 24 12Z" fill="#E8DE92"/>
<path d="M18.3305 10.9205C17.9965 9.95185 16.627 9.95185 16.3598 10.7535C16.0926 11.5551 16.9945 12.0226 18.3973 12.4903C19.8001 12.9579 20.6686 14.1938 20.5016 15.296C20.3345 16.3981 19.8669 17.8344 17.0947 17.8344C15.362 17.8344 14.3991 16.7515 13.9206 15.9393L15.4914 14.9954C15.4914 14.9954 16.0258 16.131 17.0278 16.131C18.0299 16.131 18.4307 15.797 18.4307 15.0288C18.4307 14.0936 15.1908 13.7596 14.6898 12.1563C14.1888 10.5531 14.8568 8.28183 17.1948 8.4488C18.6561 8.55319 19.4781 9.27075 19.8891 9.79425L18.3305 10.9205Z" fill="#515151"/>
<path d="M11.0491 8.61584C11.0491 8.61584 11.0491 14.2606 11.0491 15.0288C11.0491 15.797 10.3811 16.1979 9.71305 16.0642C9.04504 15.9306 8.74443 15.129 8.74443 15.129L7.20801 16.1644C7.20801 16.1644 7.54199 17.7009 9.64626 17.8345C11.7505 17.9681 12.9529 16.6989 12.9529 15.63C12.9529 14.5612 12.9529 8.61584 12.9529 8.61584H11.0491Z" fill="#515151"/>
<path d="M3.46722 2.11935V20.4372C3.96438 20.9407 4.50607 21.3996 5.08601 21.8091H18.9139C19.3773 21.482 19.8161 21.1229 20.2281 20.7345H4.54183V3.19396H22.0819V18.5104C22.5051 17.857 22.8661 17.1595 23.157 16.4268V2.11935H3.46722Z" fill="#515151"/>
</svg>
