<svg width="23" height="23" viewBox="0 0 23 23" fill="none" xmlns="http://www.w3.org/2000/svg">
<path d="M17.9896 5.41597C17.2465 5.41597 16.5412 5.57796 15.9069 5.86829C15.168 4.87026 13.9823 4.22302 12.6452 4.22302C12.2473 4.22302 11.8632 4.28124 11.5 4.3882L7.45703 11.3837L11.5 18.3793C11.949 18.016 12.334 17.5766 12.6354 17.0808C13.0834 17.2513 13.569 17.3454 14.0768 17.3454C15.537 17.3454 16.8166 16.5734 17.5309 15.4156C17.682 15.4293 17.8349 15.4367 17.9896 15.4367C20.7568 15.4367 23 13.1935 23 10.4264C23 7.65914 20.7568 5.41597 17.9896 5.41597Z" fill="#008ABB"/>
<path d="M10.1148 5.11023C9.19982 4.12437 7.89309 3.50723 6.44193 3.50723C3.67479 3.50723 1.43157 5.75045 1.43157 8.51759C1.43157 9.04004 1.51162 9.54379 1.66 10.0173C0.653703 10.7554 0 11.9458 0 13.2894C0 15.5295 1.81597 17.3455 4.05604 17.3455C4.11628 17.3455 4.17603 17.3435 4.23559 17.3409C5.14068 18.6414 6.6461 19.4928 8.35062 19.4928C9.54379 19.4928 10.6395 19.0757 11.5 18.3793V4.38815C10.9893 4.5385 10.5203 4.78607 10.1148 5.11023Z" fill="#93CDE2"/>
</svg>
