<svg width="24" height="24" viewBox="0 0 24 24" fill="none" xmlns="http://www.w3.org/2000/svg">
<path d="M24 24H0V0H24V24Z" fill="#B1C4CD"/>
<path d="M24 24H12V0H24V24Z" fill="#B1C4CD"/>
<path d="M22.5938 22.5938H1.40625V1.40625H22.5938V22.5938Z" fill="#739AC8"/>
<path d="M22.5938 22.5938H12V1.40625H22.5938V22.5938Z" fill="#4270B1"/>
<path d="M6.60291 16.5V8.51251H9.98916C11.539 8.51251 12.5317 9.93751 12.5317 11.1675C12.5317 12.6172 11.4297 13.8225 10.0454 13.8225H8.1554V16.5H6.60291ZM8.1554 12.4613H9.9554C10.5 12.4613 10.9567 11.9531 10.9567 11.1675C10.9567 10.4925 10.5468 9.87376 9.8879 9.87376H8.1554V12.4613Z" fill="#CCEFFF"/>
<path d="M15.6928 16.6125C14.332 16.6125 13.364 15.9937 13.0265 15.7012L13.589 14.7562C13.949 15.0113 14.7773 15.5325 15.659 15.5325C16.2305 15.5325 16.6265 15.293 16.6265 14.88C16.6265 14.373 15.7901 14.2089 15.3328 14.0812C14.9503 13.9763 13.229 13.7344 13.229 12.4387C13.229 11.1914 14.3145 10.4925 15.5465 10.4925C16.8398 10.4925 17.5302 11.0175 17.8528 11.3025L17.2453 12.2137C16.9452 11.9887 16.2773 11.5612 15.5353 11.5612C14.9883 11.5612 14.6353 11.7949 14.6353 12.225C14.6353 12.7617 15.5764 12.9151 15.794 12.9675C16.199 13.0726 18.0778 13.3594 18.0778 14.745C18.0778 16.3828 16.4277 16.6125 15.6928 16.6125Z" fill="#ACE3FC"/>
<path d="M12 9.57947V12.805C12.3333 12.3516 12.5317 11.7817 12.5317 11.1675C12.5317 10.6304 12.3423 10.0561 12 9.57947Z" fill="#ACE3FC"/>
</svg>
