<svg width="22" height="22" viewBox="0 0 22 22" fill="none" xmlns="http://www.w3.org/2000/svg">
<g clip-path="url(#clip0)">
<path d="M1.38527 0.728288L2.81311 18.995C2.83455 19.2693 3.02022 19.5032 3.28251 19.5863L10.7959 21.9684C10.9287 22.0105 11.0714 22.0105 11.2042 21.9684L18.7176 19.5863C18.9799 19.5032 19.1655 19.2693 19.187 18.995L20.6148 0.728288C20.6455 0.335564 20.3351 0 19.9413 0H2.05888C1.66499 0 1.35461 0.335564 1.38527 0.728288ZM16.9532 6.39583H7.64767L7.92851 8.98553H16.7508L16.1737 16.3684L11.0001 18.0087L5.82645 16.3684L5.52494 12.5113H8.24046V14.4032L11.0726 15.1634L13.8879 14.4032L14.1063 11.388H5.43712L4.86156 4.02448H17.1385L16.9532 6.39583Z" fill="#FF855A"/>
</g>
<defs>
<clipPath id="clip0">
<rect width="22" height="22" fill="white"/>
</clipPath>
</defs>
</svg>
